HIERARCHY
ROOT joint_Root
{
	OFFSET 0.0 0.0 0.0
	CHANNELS 6 Xposition Yposition Zposition Zrotation Xrotation Yrotation 
	JOINT Hips
	{
		OFFSET 4.5925 91.4895 -427.239
		CHANNELS 6 Xposition Yposition Zposition Zrotation Xrotation Yrotation 
		JOINT Spine
		{
			OFFSET 15.7357 0.0 0.0
			CHANNELS 6 Xposition Yposition Zposition Zrotation Xrotation Yrotation 
			JOINT Chest
			{
				OFFSET 8.98455 -0.406207 0.0
				CHANNELS 6 Xposition Yposition Zposition Zrotation Xrotation Yrotation 
				JOINT Neck
				{
					OFFSET 16.3773 0.0 0.0
					CHANNELS 6 Xposition Yposition Zposition Zrotation Xrotation Yrotation 
					JOINT Head
					{
						OFFSET 6.45672 0.0 0.0
						CHANNELS 6 Xposition Yposition Zposition Zrotation Xrotation Yrotation 
						End Site
						{
							OFFSET 0.0 0.0 0.0
						}
					}
				}
				JOINT Shoulder_L
				{
					OFFSET 12.9942 -0.242716 4.98039
					CHANNELS 6 Xposition Yposition Zposition Zrotation Xrotation Yrotation 
					JOINT UpperArm_L
					{
						OFFSET 5.34809 0.0 0.0
						CHANNELS 6 Xposition Yposition Zposition Zrotation Xrotation Yrotation 
						JOINT LowerArm_L
						{
							OFFSET 24.3286 1.87007e-05 0.0
							CHANNELS 6 Xposition Yposition Zposition Zrotation Xrotation Yrotation 
							JOINT Hand_L
							{
								OFFSET 22.2916 0.0 0.0
								CHANNELS 6 Xposition Yposition Zposition Zrotation Xrotation Yrotation 
								End Site
								{
									OFFSET 0.0 0.0 0.0
								}
							}
						}
					}
				}
				JOINT Shoulder_R
				{
					OFFSET 12.9945 -0.242716 -4.98039
					CHANNELS 6 Xposition Yposition Zposition Zrotation Xrotation Yrotation 
					JOINT UpperArm_R
					{
						OFFSET -5.34813 0.0 0.0
						CHANNELS 6 Xposition Yposition Zposition Zrotation Xrotation Yrotation 
						JOINT LowerArm_R
						{
							OFFSET -24.3289 0.000322201 0.0
							CHANNELS 6 Xposition Yposition Zposition Zrotation Xrotation Yrotation 
							JOINT Hand_R
							{
								OFFSET -22.2915 -0.000108084 0.0
								CHANNELS 6 Xposition Yposition Zposition Zrotation Xrotation Yrotation 
								End Site
								{
									OFFSET 0.0 0.0 0.0
								}
							}
						}
					}
				}
			}
		}
		JOINT UpperLeg_L
		{
			OFFSET -2.19248 -6.46944 0.0
			CHANNELS 6 Xposition Yposition Zposition Zrotation Xrotation Yrotation 
			JOINT LowerLeg_L
			{
				OFFSET 39.0811 0.0 -1.23785e-05
				CHANNELS 6 Xposition Yposition Zposition Zrotation Xrotation Yrotation 
				JOINT Foot_L
				{
					OFFSET 40.9854 0.0 -1.26872e-05
					CHANNELS 6 Xposition Yposition Zposition Zrotation Xrotation Yrotation 
					JOINT Toes_L
					{
						OFFSET 11.7543 0.0 0.0
						CHANNELS 6 Xposition Yposition Zposition Zrotation Xrotation Yrotation 
						End Site
						{
							OFFSET 0.0 0.0 0.0
						}
					}
				}
			}
		}
		JOINT UpperLeg_R
		{
			OFFSET -2.19251 6.46944 0.0
			CHANNELS 6 Xposition Yposition Zposition Zrotation Xrotation Yrotation 
			JOINT LowerLeg_R
			{
				OFFSET -39.0811 -0.00228153 -0.0401928
				CHANNELS 6 Xposition Yposition Zposition Zrotation Xrotation Yrotation 
				JOINT Foot_R
				{
					OFFSET -40.9854 0.0 0.0
					CHANNELS 6 Xposition Yposition Zposition Zrotation Xrotation Yrotation 
					JOINT Toes_R
					{
						OFFSET -11.7543 0.0 0.0
						CHANNELS 6 Xposition Yposition Zposition Zrotation Xrotation Yrotation 
						End Site
						{
							OFFSET 0.0 0.0 0.0
						}
					}
				}
			}
		}
	}
}
MOTION
Frames:	6
Frame Time:	0.0333333
0.000000 0.000000 0.000000 0.000000 0.000000 -0.000000 -1.072530 90.004200 -2.571640 88.974700 -2.589170 11.902900 15.735700 0.000005 -0.000001 87.953300 76.993600 -87.693400 8.984550 -0.406207 -0.000000 18.233800 -0.887895 0.663487 16.377300 -0.000001 -0.000001 1.930030 -3.044740 1.318670 6.456720 -0.000001 -0.000000 -7.718290 -1.397680 -0.709346 12.994200 -0.242716 4.980390 -91.253700 6.664590 -79.321300 5.348090 -0.000007 -0.000001 -50.222700 41.603200 -34.616300 24.328600 0.000019 0.000005 6.222890 16.902700 -20.557400 22.291600 -0.000001 0.000005 8.872350 5.233340 1.869000 12.994500 -0.242716 -4.980390 89.376700 11.190100 -86.791300 -5.348130 -0.000001 -0.000004 -56.769700 31.053700 -24.365100 -24.328900 0.000322 -0.000009 2.173400 5.170120 -22.848400 -22.291500 -0.000108 -0.000004 18.370400 5.385940 -2.486200 -2.192480 -6.469440 -0.000000 -173.219000 -12.787000 -2.475120 39.081100 -0.000007 -0.000012 -0.246599 0.342152 35.781900 40.985400 -0.000006 -0.000013 -0.077806 5.098730 -70.941400 11.754300 -0.000000 0.000003 -0.000121 -0.001211 -16.623800 -2.192510 6.469440 -0.000001 174.930000 19.946700 179.106000 -39.081100 -0.002282 -0.040193 -0.134688 0.197548 34.932800 -40.985400 0.000008 0.000006 5.859120 12.334400 -72.273300 -11.754300 -0.000006 -0.000006 -0.002136 -0.030404 -17.809400
0.000000 0.000000 0.000000 0.000000 0.000000 -0.000000 -1.066690 90.002600 -2.627150 88.982700 -2.612220 11.923400 15.735700 0.000005 -0.000001 88.008000 76.963900 -87.781200 8.984550 -0.406207 -0.000000 18.293700 -0.868389 0.594332 16.377300 -0.000001 -0.000001 1.940260 -3.044020 1.280960 6.456720 -0.000001 -0.000000 -7.787760 -1.433030 -0.707086 12.994200 -0.242716 4.980390 -91.249300 6.628540 -79.301400 5.348090 -0.000007 -0.000001 -50.224200 41.510000 -34.612100 24.328600 0.000019 0.000005 6.195330 16.807800 -20.576100 22.291600 -0.000001 0.000005 8.928340 5.234860 1.829570 12.994500 -0.242716 -4.980390 89.356700 11.191800 -86.689000 -5.348130 -0.000001 -0.000004 -57.073100 30.024600 -24.143100 -24.328900 0.000322 -0.000009 2.387400 5.366930 -24.034300 -22.291500 -0.000108 -0.000004 18.458500 5.386910 -2.516640 -2.192480 -6.469440 -0.000000 -173.228000 -12.777600 -2.503870 39.081100 -0.000007 -0.000012 -0.251846 0.349227 35.797900 40.985400 -0.000006 -0.000013 -0.082320 5.075530 -70.908600 11.754300 -0.000000 0.000003 -0.000132 -0.001302 -16.627200 -2.192510 6.469440 -0.000001 174.912000 19.930400 179.077000 -39.081100 -0.002282 -0.040193 -0.143216 0.209708 34.939200 -40.985400 0.000008 0.000006 5.702930 12.390800 -72.193700 -11.754300 -0.000006 -0.000006 -0.001832 -0.026589 -17.654300
0.000000 0.000000 0.000000 0.000000 0.000000 -0.000000 -1.078440 90.005900 -2.662530 88.969500 -2.615380 11.955400 15.735700 0.000005 -0.000001 87.944500 76.930100 -87.745400 8.984550 -0.406207 -0.000000 18.360200 -0.901386 0.544764 16.377300 -0.000001 -0.000001 2.015530 -3.017600 1.214280 6.456720 -0.000001 -0.000000 -7.897880 -1.427800 -0.758150 12.994200 -0.242716 4.980390 -91.255100 6.624560 -79.247100 5.348090 -0.000007 -0.000001 -50.241000 41.388600 -34.535100 24.328600 0.000019 0.000005 6.209370 16.828400 -20.596700 22.291600 -0.000001 0.000005 8.935310 5.233090 1.875520 12.994500 -0.242716 -4.980390 89.340600 11.160800 -86.597000 -5.348130 -0.000001 -0.000004 -57.576100 28.558500 -23.822800 -24.328900 0.000322 -0.000009 2.465310 5.153060 -25.621700 -22.291500 -0.000108 -0.000004 18.730300 5.387790 -2.544740 -2.192480 -6.469440 -0.000000 -173.197000 -12.797200 -2.491960 39.081100 -0.000007 -0.000012 -0.249951 0.346634 35.795000 40.985400 -0.000006 -0.000013 -0.079199 5.105370 -70.882200 11.754300 -0.000000 0.000003 -0.000129 -0.001276 -16.626200 -2.192510 6.469440 -0.000001 174.934000 19.959900 179.092000 -39.081100 -0.002282 -0.040193 -0.138214 0.202603 34.931900 -40.985400 0.000008 0.000006 5.758040 12.380600 -72.180900 -11.754300 -0.000006 -0.000006 -0.002011 -0.028855 -17.746400
0.000000 0.000000 0.000000 0.000000 0.000000 -0.000000 -1.078520 90.006200 -2.705230 88.954300 -2.665530 11.950700 15.735700 0.000005 -0.000001 87.956100 76.909900 -87.789400 8.984550 -0.406207 -0.000000 18.400500 -0.900451 0.480089 16.377300 -0.000001 -0.000001 2.051370 -3.026500 1.176800 6.456720 -0.000001 -0.000000 -7.925680 -1.424760 -0.833469 12.994200 -0.242716 4.980390 -91.257300 6.612710 -79.209800 5.348090 -0.000007 -0.000001 -50.260000 41.236400 -34.451800 24.328600 0.000019 0.000005 6.184120 16.793200 -20.557600 22.291600 -0.000001 0.000005 8.904640 5.232800 1.883040 12.994500 -0.242716 -4.980390 89.319300 11.137400 -86.480200 -5.348130 -0.000001 -0.000004 -57.804400 27.202100 -23.576200 -24.328900 0.000322 -0.000009 2.429220 4.622100 -27.777000 -22.291500 -0.000108 -0.000004 18.963200 5.388590 -2.570280 -2.192480 -6.469440 -0.000000 -173.179000 -12.887900 -2.528520 39.081100 -0.000007 -0.000012 -0.245821 0.340647 35.815800 40.985400 -0.000006 -0.000013 -0.063420 5.109820 -70.864500 11.754300 -0.000000 0.000003 -0.000129 -0.001280 -16.626400 -2.192510 6.469440 -0.000001 174.966000 19.947100 179.039000 -39.081100 -0.002282 -0.040193 -0.139636 0.204566 34.941600 -40.985400 0.000008 0.000006 5.783740 12.407200 -72.152100 -11.754300 -0.000006 -0.000006 -0.002016 -0.028921 -17.749100
0.000000 0.000000 0.000000 0.000000 0.000000 -0.000000 -1.067060 90.010700 -2.747870 88.954900 -2.674510 11.970500 15.735700 0.000005 -0.000001 87.886500 76.883700 -87.761200 8.984550 -0.406207 -0.000000 18.451500 -0.937212 0.403292 16.377300 -0.000001 -0.000001 2.102600 -3.036440 1.110130 6.456720 -0.000001 -0.000000 -7.937910 -1.440530 -0.904822 12.994200 -0.242716 4.980390 -91.262100 6.608080 -79.161800 5.348090 -0.000007 -0.000001 -50.236500 41.119400 -34.394300 24.328600 0.000019 0.000005 6.238180 17.052400 -20.443000 22.291600 -0.000001 0.000005 8.873100 5.231310 1.921490 12.994500 -0.242716 -4.980390 89.298200 11.104800 -86.360800 -5.348130 -0.000001 -0.000004 -57.789500 25.959400 -23.440700 -24.328900 0.000322 -0.000009 2.475550 4.232360 -30.372500 -22.291500 -0.000108 -0.000004 19.237400 5.396160 -2.812740 -2.192480 -6.469440 -0.000000 -173.177000 -12.898100 -2.527910 39.081100 -0.000007 -0.000012 -0.248107 0.343974 35.803200 40.985400 -0.000006 -0.000013 -0.055289 5.122330 -70.832900 11.754300 -0.000000 0.000003 -0.000124 -0.001238 -16.624800 -2.192510 6.469440 -0.000001 174.959000 19.954000 179.034000 -39.081100 -0.002282 -0.040193 -0.139658 0.204672 34.931700 -40.985400 0.000008 0.000006 5.784090 12.437400 -72.117300 -11.754300 -0.000006 -0.000006 -0.001935 -0.027904 -17.707800
0.000000 0.000000 0.000000 0.000000 0.000000 -0.000000 -1.061060 90.006400 -2.792390 88.937200 -2.692170 11.996300 15.735700 0.000005 -0.000001 87.815700 76.851500 -87.730800 8.984550 -0.406207 -0.000000 18.514500 -0.974938 0.329165 16.377300 -0.000001 -0.000001 2.157390 -3.061160 1.075410 6.456720 -0.000001 -0.000000 -7.963860 -1.413360 -1.039800 12.994200 -0.242716 4.980390 -91.257500 6.589730 -79.171000 5.348090 -0.000007 -0.000001 -50.257500 40.940800 -34.266100 24.328600 0.000019 0.000005 6.173970 16.972600 -20.333100 22.291600 -0.000001 0.000005 8.943850 5.232260 1.897080 12.994500 -0.242716 -4.980390 89.271900 11.038400 -86.202500 -5.348130 -0.000001 -0.000004 -57.546100 24.906800 -23.555400 -24.328900 0.000322 -0.000009 2.727800 4.172910 -33.226500 -22.291500 -0.000108 -0.000004 19.744600 5.393070 -2.713630 -2.192480 -6.469440 -0.000000 -173.169000 -12.881700 -2.559860 39.081100 -0.000007 -0.000012 -0.246521 0.341247 35.845200 40.985400 -0.000006 -0.000013 -0.047583 5.113700 -70.819500 11.754300 -0.000000 0.000003 -0.000122 -0.001222 -16.624200 -2.192510 6.469440 -0.000001 174.961000 19.952700 179.022000 -39.081100 -0.002282 -0.040193 -0.141862 0.207726 34.944800 -40.985400 0.000008 0.000006 5.727090 12.499600 -72.077800 -11.754300 -0.000006 -0.000006 -0.001942 -0.027994 -17.711400
